<?xml version="1.0" encoding="iso-8859-1"?>
<!-- Generator: Adobe Illustrator 19.0.0, SVG Export Plug-In . SVG Version: 6.00 Build 0)  -->
<svg version="1.1" id="Capa_1" xmlns="http://www.w3.org/2000/svg" xmlns:xlink="http://www.w3.org/1999/xlink" x="0px" y="0px"
	 viewBox="0 0 468.293 468.293" style="enable-background:new 0 0 468.293 468.293;" xml:space="preserve">
<path style="fill:#44C4A1;" d="M19.4,253.547C19.4,134.95,115.549,38.8,234.146,38.8c56.521,0,108.003,21.818,146.371,57.552
	c2.978,2.806,5.899,5.67,8.705,8.59c0.459,0.458,0.916,0.974,1.317,1.432c2.062,2.176,4.009,4.352,5.956,6.586
	c32.641,37.681,52.398,86.815,52.398,140.587c0,43.866-13.171,84.696-35.676,118.655c-2.004,3.035-4.124,6.07-6.299,8.991
	c-2.463,3.264-4.983,6.471-7.559,9.563c-39.399,47.358-98.783,77.538-165.211,77.538c-76.22,0-143.164-39.685-181.246-99.585
	c-1.661-2.577-3.207-5.154-4.753-7.788c-2.348-4.009-4.524-8.132-6.643-12.312C27.36,319.918,19.4,287.677,19.4,253.547z"/>
<path style="fill:#E1E6E9;" d="M19.4,253.547C19.4,134.95,115.549,38.8,234.146,38.8c60.931,0,115.963,25.369,155.075,66.142
	L48.148,360.92C29.88,329.366,19.4,292.659,19.4,253.547z"/>
<path style="fill:#27A2DB;" d="M244.454,218.729l146.085-112.355c2.062,2.176,4.009,4.352,5.956,6.586
	c32.641,37.681,52.398,86.815,52.398,140.587c0,43.866-13.171,84.696-35.676,118.655c-2.004,3.035-4.124,6.07-6.299,8.991
	L244.454,218.729z"/>
<path style="fill:#64798A;" d="M41.505,348.608L380.517,96.352c2.978,2.806,5.899,5.67,8.705,8.59
	c2.52,2.634,4.925,5.269,7.273,8.017L257.453,216.438l155.763,155.763c-4.295,6.471-8.933,12.655-13.859,18.554L238.899,230.297
	L52.9,368.708c-1.661-2.577-3.207-5.154-4.753-7.788C45.8,356.911,43.623,352.788,41.505,348.608z"/>
<path style="fill:#E56353;" d="M122.183,0.046c-32.903,1.249-59.528,28.38-60.197,61.3c-0.26,12.779,3.308,24.708,9.633,34.721
	c1.122,1.776,2.377,3.459,3.667,5.118c6.339,8.15,35.566,48.518,43.271,109.123c0.388,3.055,2.986,5.348,6.065,5.348h0
	c3.079,0,5.677-2.293,6.065-5.348c7.704-60.596,36.924-100.961,43.268-109.119c1.279-1.644,2.524-3.311,3.638-5.071
	c6.13-9.682,9.679-21.16,9.679-33.467C187.274,27.24,157.896-1.31,122.183,0.046z"/>
<circle style="fill:#EBF0F3;" cx="124.622" cy="62.27" r="43.133"/>
<path style="fill:#FCD462;" d="M232.202,296.533c-26.211,0.995-47.421,22.608-47.954,48.833c-0.207,10.18,2.635,19.683,7.674,27.66
	c0.894,1.415,1.894,2.756,2.921,4.077c5.05,6.493,28.333,38.651,34.471,86.93c0.309,2.434,2.379,4.26,4.832,4.26l0,0
	c2.453,0,4.522-1.827,4.832-4.26c6.137-48.272,29.415-80.428,34.469-86.927c1.019-1.31,2.011-2.638,2.898-4.04
	c4.883-7.713,7.71-16.857,7.71-26.661C284.055,318.195,260.652,295.452,232.202,296.533z"/>
<circle style="fill:#2D93BA;" cx="234.146" cy="346.106" r="34.36"/>
<g>
</g>
<g>
</g>
<g>
</g>
<g>
</g>
<g>
</g>
<g>
</g>
<g>
</g>
<g>
</g>
<g>
</g>
<g>
</g>
<g>
</g>
<g>
</g>
<g>
</g>
<g>
</g>
<g>
</g>
</svg>
