<?xml version="1.0" encoding="iso-8859-1"?>
<!-- Generator: Adobe Illustrator 19.0.0, SVG Export Plug-In . SVG Version: 6.00 Build 0)  -->
<svg version="1.1" id="Capa_1" xmlns="http://www.w3.org/2000/svg" xmlns:xlink="http://www.w3.org/1999/xlink" x="0px" y="0px"
	 viewBox="0 0 468.293 468.293" style="enable-background:new 0 0 468.293 468.293;" xml:space="preserve">
<path style="fill:#FCD462;" d="M380.488,146.341c0,80.822-146.341,321.951-146.341,321.951S87.805,227.164,87.805,146.341
	S153.324,0,234.146,0S380.488,65.519,380.488,146.341z"/>
<circle style="fill:#3A556A;" cx="234.146" cy="146.338" r="109.268"/>
<g>
	<polygon style="fill:#E1E6E9;" points="234.147,58.926 215.066,146.341 234.147,233.755 253.227,146.341 	"/>
	<path style="fill:#E1E6E9;" d="M234.147,157.742l43.707,32.305l-32.306-43.707l32.305-43.707c0,0-30.096,22.245-43.707,32.306
		l-43.707-32.305c0,0,22.245,30.096,32.306,43.707l-32.305,43.708L234.147,157.742z"/>
	<polygon style="fill:#E1E6E9;" points="321.561,146.341 234.146,127.26 146.732,146.341 234.146,165.421 	"/>
</g>
<g>
</g>
<g>
</g>
<g>
</g>
<g>
</g>
<g>
</g>
<g>
</g>
<g>
</g>
<g>
</g>
<g>
</g>
<g>
</g>
<g>
</g>
<g>
</g>
<g>
</g>
<g>
</g>
<g>
</g>
</svg>
