<?xml version="1.0" encoding="iso-8859-1"?>
<!-- Generator: Adobe Illustrator 19.0.0, SVG Export Plug-In . SVG Version: 6.00 Build 0)  -->
<svg version="1.1" id="Capa_1" xmlns="http://www.w3.org/2000/svg" xmlns:xlink="http://www.w3.org/1999/xlink" x="0px" y="0px"
	 viewBox="0 0 468.293 468.293" style="enable-background:new 0 0 468.293 468.293;" xml:space="preserve">
<polygon style="fill:#27A2DB;" points="232.191,433.871 89.29,323.688 101.192,308.256 227.834,405.909 350.88,227.933 
	101.311,149.466 367.629,41.861 374.927,59.929 158.99,147.173 381.934,217.277 "/>
<path style="fill:#E56353;" d="M116.093,200.475c-28.064,0-50.895-22.831-50.895-50.895s22.831-50.895,50.895-50.895
	s50.895,22.831,50.895,50.895S144.158,200.475,116.093,200.475z M116.093,119.408c-16.639,0-30.173,13.534-30.173,30.173
	s13.534,30.173,30.173,30.173s30.173-13.534,30.173-30.173S132.732,119.408,116.093,119.408z"/>
<circle style="fill:#FFFFFF;" cx="116.074" cy="149.579" r="30.171"/>
<path style="fill:#64798A;" d="M373.05,271.92c-28.064,0-50.895-22.831-50.895-50.895s22.831-50.895,50.895-50.895
	c28.064,0,50.895,22.831,50.895,50.895S401.114,271.92,373.05,271.92z M373.05,190.852c-16.639,0-30.173,13.534-30.173,30.173
	s13.534,30.173,30.173,30.173c16.638,0,30.173-13.534,30.173-30.173S389.688,190.852,373.05,190.852z"/>
<circle style="fill:#FFFFFF;" cx="373.073" cy="221.028" r="30.171"/>
<path style="fill:#D5D6DB;" d="M95.243,366.503c-28.064,0-50.895-22.831-50.895-50.895c0-28.064,22.831-50.895,50.895-50.895
	s50.895,22.831,50.895,50.895S123.307,366.503,95.243,366.503z M95.243,285.435c-16.639,0-30.173,13.534-30.173,30.173
	c0,16.639,13.534,30.173,30.173,30.173s30.173-13.534,30.173-30.173C125.415,298.969,111.881,285.435,95.243,285.435z"/>
<path style="fill:#FCD462;" d="M371.278,101.79c-28.064,0-50.895-22.831-50.895-50.895S343.214,0,371.278,0
	c28.064,0,50.895,22.831,50.895,50.895S399.342,101.79,371.278,101.79z M371.278,20.722c-16.639,0-30.173,13.534-30.173,30.173
	s13.534,30.173,30.173,30.173s30.173-13.534,30.173-30.173S387.917,20.722,371.278,20.722z"/>
<g>
	<circle style="fill:#FFFFFF;" cx="95.244" cy="315.629" r="30.171"/>
	<circle style="fill:#FFFFFF;" cx="371.275" cy="50.894" r="30.171"/>
</g>
<path style="fill:#44C4A1;" d="M230.013,468.293c-28.064,0-50.895-22.831-50.895-50.895s22.831-50.895,50.895-50.895
	s50.895,22.831,50.895,50.895S258.077,468.293,230.013,468.293z M230.013,387.225c-16.639,0-30.173,13.534-30.173,30.173
	s13.534,30.173,30.173,30.173s30.173-13.534,30.173-30.173S246.652,387.225,230.013,387.225z"/>
<circle style="fill:#FFFFFF;" cx="230.025" cy="417.405" r="30.171"/>
<g>
</g>
<g>
</g>
<g>
</g>
<g>
</g>
<g>
</g>
<g>
</g>
<g>
</g>
<g>
</g>
<g>
</g>
<g>
</g>
<g>
</g>
<g>
</g>
<g>
</g>
<g>
</g>
<g>
</g>
</svg>
